<svg width="162" height="162" viewBox="0 0 162 162" fill="none" xmlns="http://www.w3.org/2000/svg" xmlns:xlink="http://www.w3.org/1999/xlink">
<path d="M90.066,144.779C89.023,143.737 87.338,143.737 86.295,144.779C85.253,145.822 85.253,147.508 86.295,148.55L96.962,159.217C97.482,159.737 98.165,159.998 98.847,159.998C99.53,159.998 100.213,159.737 100.733,159.217C101.775,158.174 101.775,156.489 100.733,155.446L90.066,144.779Z" transform="rotate(0.712 93.514 151.998)" fill="#000000"/>
<path d="M115.444,69.466C122.796,69.466 128.777,63.485 128.777,56.133C128.777,48.78 122.796,42.799 115.444,42.799C108.092,42.799 102.11,48.78 102.11,56.133C102.11,63.485 108.092,69.466 115.444,69.466ZM115.444,48.133C119.854,48.133 123.444,51.722 123.444,56.133C123.444,60.543 119.854,64.133 115.444,64.133C111.033,64.133 107.444,60.543 107.444,56.133C107.444,51.722 111.033,48.133 115.444,48.133Z" transform="rotate(0.712 115.444 56.133)" fill="#000000"/>
<path d="M80.231,127.857C78.756,127.857 77.564,129.052 77.564,130.524L77.564,137.42L59.679,155.305C58.637,156.348 58.637,158.033 59.679,159.076C60.199,159.596 60.882,159.857 61.564,159.857C62.247,159.857 62.93,159.596 63.45,159.076L82.116,140.409C82.618,139.911 82.898,139.231 82.898,138.524L82.898,130.524C82.898,129.052 81.706,127.857 80.231,127.857Z" transform="rotate(0.712 70.897 143.857)" fill="#000000"/>
<path d="M158.078,5.251L83.411,5.251L83.411,2.584C83.411,1.112 82.219,-0.083 80.745,-0.083C79.27,-0.083 78.078,1.112 78.078,2.584L78.078,5.25L3.411,5.25C1.937,5.251 0.745,6.445 0.745,7.917L0.745,18.584C0.745,20.055 1.937,21.25 3.411,21.25L142.078,21.25C143.553,21.25 144.744,20.055 144.744,18.584C144.744,17.112 143.553,15.917 142.078,15.917L6.078,15.917L6.078,10.584L155.411,10.584L155.411,15.917L152.745,15.917C151.27,15.917 150.078,17.112 150.078,18.584L150.078,109.25C150.078,113.661 146.489,117.25 142.078,117.25L19.411,117.25C15.001,117.25 11.411,113.661 11.411,109.25L11.411,29.25C11.411,27.778 10.219,26.584 8.745,26.584C7.27,26.584 6.078,27.778 6.078,29.25L6.078,109.25C6.078,116.602 12.059,122.584 19.412,122.584L142.078,122.584C149.43,122.584 155.412,116.602 155.412,109.25L155.412,21.25L158.078,21.25C159.553,21.25 160.745,20.055 160.745,18.584L160.745,7.917C160.745,6.445 159.553,5.251 158.078,5.251Z" transform="rotate(0.712 80.745 61.25)" fill="#000000"/>
<path d="M95.764,86.147C94.721,85.104 93.036,85.104 91.994,86.147C90.951,87.19 90.951,88.875 91.994,89.918L95.442,93.366L91.994,96.814C90.951,97.857 90.951,99.542 91.994,100.584C92.514,101.104 93.196,101.366 93.879,101.366C94.562,101.366 95.244,101.104 95.764,100.584L99.212,97.136L102.66,100.584C103.18,101.104 103.863,101.366 104.546,101.366C105.228,101.366 105.911,101.104 106.431,100.584C107.474,99.542 107.474,97.856 106.431,96.814L102.983,93.366L106.431,89.917C107.474,88.875 107.474,87.189 106.431,86.147C105.389,85.104 103.703,85.104 102.66,86.147L99.212,89.595L95.764,86.147Z" transform="rotate(0.712 99.212 93.365)" fill="#000000"/>
<path d="M38.124,85.607C34.969,86.679 32.679,89.639 32.679,93.151C32.679,97.562 36.268,101.151 40.679,101.151C45.089,101.151 48.679,97.562 48.679,93.151C48.679,89.719 46.497,86.81 43.455,85.676C44.559,70.5 57.228,58.484 72.679,58.484L87.575,58.484L81.46,64.599C80.418,65.642 80.418,67.327 81.46,68.369C81.98,68.889 82.663,69.151 83.345,69.151C84.028,69.151 84.711,68.889 85.231,68.369L95.895,57.705C96.143,57.457 96.338,57.164 96.473,56.836C96.743,56.185 96.743,55.449 96.473,54.799C96.338,54.471 96.143,54.178 95.895,53.932L85.231,43.266C84.188,42.223 82.503,42.223 81.46,43.266C80.418,44.308 80.418,45.994 81.46,47.036L87.575,53.151L72.679,53.151C54.308,53.151 39.273,67.522 38.124,85.607ZM40.679,95.818C39.207,95.818 38.012,94.62 38.012,93.151C38.012,91.682 39.207,90.484 40.679,90.484C42.151,90.484 43.345,91.682 43.345,93.151C43.345,94.62 42.151,95.818 40.679,95.818Z" transform="rotate(0.712 64.677 71.817)" fill="#000000"/>
<path d="M28.293,52.187C28.813,52.707 29.496,52.969 30.179,52.969C30.861,52.969 31.544,52.707 32.064,52.187L35.512,48.739L38.96,52.187C39.48,52.707 40.163,52.969 40.845,52.969C41.528,52.969 42.211,52.707 42.731,52.187C43.774,51.145 43.774,49.459 42.731,48.417L39.283,44.969L42.731,41.521C43.774,40.478 43.774,38.792 42.731,37.75C41.688,36.707 40.003,36.707 38.96,37.75L35.512,41.198L32.064,37.75C31.021,36.708 29.336,36.708 28.293,37.75C27.25,38.793 27.25,40.478 28.293,41.521L31.741,44.969L28.293,48.417C27.25,49.46 27.25,51.145 28.293,52.187Z" transform="rotate(0.712 35.512 44.968)" fill="#000000"/>
</svg>
