<svg width="162" height="162" viewBox="0 0 162 162" fill="none" xmlns="http://www.w3.org/2000/svg" xmlns:xlink="http://www.w3.org/1999/xlink">
<path d="M39.784,122.8C38.43,122.292 36.906,122.945 36.382,124.261C35.858,125.578 36.531,127.058 37.886,127.567C50.406,132.272 51.752,148.384 51.8,154.48L5.536,154.48C5.585,148.382 6.932,132.272 19.451,127.567C20.806,127.058 21.479,125.578 20.955,124.261C20.432,122.945 18.909,122.29 17.554,122.8C-1.568,129.986 0.256,156.121 0.343,157.23C0.448,158.563 1.591,159.591 2.966,159.591L54.371,159.591C55.746,159.591 56.889,158.563 56.993,157.231C57.08,156.121 58.906,129.986 39.784,122.8Z" transform="rotate(0.712 28.668 141.109)" fill="#000000"/>
<path d="M124.724,131.237C126.176,131.237 127.354,130.093 127.354,128.682C127.354,127.27 126.176,126.126 124.724,126.126L103.908,126.126C102.456,126.126 101.278,127.27 101.278,128.682L101.278,157.568C101.278,158.979 102.456,160.123 103.908,160.123L124.724,160.123C126.176,160.123 127.354,158.979 127.354,157.568L127.354,138.361C127.354,136.95 126.176,135.805 124.724,135.805C123.271,135.805 122.093,136.95 122.093,138.361L122.093,155.013L106.538,155.013L106.538,131.237L124.724,131.237L124.724,131.237Z" transform="rotate(0.712 114.316 143.125)" fill="#000000"/>
<path d="M89.973,96.664C91.426,96.664 92.604,95.52 92.604,94.109C92.604,92.698 91.426,91.554 89.973,91.554L69.158,91.554C67.705,91.554 66.527,92.698 66.527,94.109L66.527,157.352C66.527,158.763 67.705,159.907 69.158,159.907L89.973,159.907C91.426,159.907 92.604,158.763 92.604,157.352L92.604,103.999C92.604,102.588 91.426,101.444 89.973,101.444C88.521,101.444 87.343,102.588 87.343,103.999L87.343,154.796L71.788,154.796L71.788,96.664L89.973,96.664Z" transform="rotate(0.712 79.565 125.73)" fill="#000000"/>
<path d="M28.962,119.896C43.778,119.896 55.831,108.187 55.831,93.794C55.831,79.401 43.778,67.691 28.962,67.691C14.147,67.691 2.094,79.401 2.094,93.794C2.094,108.187 14.147,119.896 28.962,119.896ZM28.962,72.802C40.877,72.802 50.57,82.218 50.57,93.793C50.57,105.368 40.877,114.785 28.962,114.785C17.048,114.785 7.355,105.368 7.355,93.793C7.355,82.218 17.048,72.802 28.962,72.802Z" transform="rotate(0.712 28.963 93.793)" fill="#000000"/>
<path d="M109.469,58.762L109.469,8.164C109.469,6.753 108.291,5.609 106.838,5.609L89.399,5.609L89.399,2.462C89.399,1.05 88.221,-0.094 86.768,-0.094C85.316,-0.094 84.139,1.05 84.139,2.462L84.139,13.057C84.139,14.468 85.316,15.612 86.768,15.612C88.221,15.612 89.399,14.468 89.399,13.057L89.399,10.72L104.208,10.72L104.208,25.133L96.341,25.133C94.889,25.133 93.711,26.277 93.711,27.688C93.711,29.099 94.889,30.244 96.341,30.244L104.208,30.244L104.208,58.762C104.208,62.607 100.988,65.735 97.03,65.735L52.513,65.735C51.06,65.735 49.882,66.88 49.882,68.291C49.882,69.702 51.06,70.846 52.513,70.846L97.03,70.846C103.889,70.847 109.469,65.425 109.469,58.762Z" transform="rotate(0.712 79.676 35.376)" fill="#000000"/>
<path d="M24.389,59.308C25.842,59.308 27.019,58.163 27.019,56.753L27.019,30.083L83.067,30.083C84.519,30.083 85.697,28.938 85.697,27.527C85.697,26.116 84.519,24.972 83.067,24.972L27.019,24.972L27.019,10.558L34.432,10.558C35.885,10.558 37.063,9.414 37.063,8.003C37.063,6.592 35.885,5.448 34.432,5.448L24.389,5.448C22.936,5.448 21.759,6.592 21.759,8.003L21.759,56.753C21.759,58.163 22.936,59.308 24.389,59.308Z" transform="rotate(0.712 53.728 32.378)" fill="#000000"/>
<path d="M65.776,15.56C67.229,15.56 68.407,14.416 68.407,13.005L68.407,10.668L76.979,10.668C78.432,10.668 79.609,9.523 79.609,8.113C79.609,6.701 78.432,5.557 76.979,5.557L68.407,5.557L68.407,2.41C68.407,0.999 67.229,-0.146 65.776,-0.146C64.323,-0.146 63.146,0.999 63.146,2.41L63.146,13.005C63.146,14.416 64.323,15.56 65.776,15.56Z" transform="rotate(0.712 71.378 7.707)" fill="#000000"/>
<path d="M44.613,15.429C46.066,15.429 47.243,14.284 47.243,12.873L47.243,10.536L55.763,10.536C57.216,10.536 58.393,9.392 58.393,7.981C58.393,6.57 57.216,5.425 55.763,5.425L47.243,5.425L47.243,2.278C47.243,0.867 46.065,-0.277 44.613,-0.277C43.16,-0.277 41.982,0.867 41.982,2.278L41.982,12.874C41.982,14.284 43.16,15.429 44.613,15.429Z" transform="rotate(0.712 50.188 7.576)" fill="#000000"/>
<path d="M44.672,46.472C43.219,46.472 42.042,47.616 42.042,49.027L42.042,53.388C42.042,54.799 43.219,55.944 44.672,55.944L58.158,55.944C59.611,55.944 60.788,54.799 60.788,53.388L60.788,40.287C60.788,38.876 59.61,37.731 58.158,37.731L44.672,37.731C43.219,37.731 42.042,38.876 42.042,40.287C42.042,41.698 43.219,42.842 44.672,42.842L55.527,42.842L55.527,50.833L47.302,50.833L47.302,49.028C47.302,47.616 46.125,46.472 44.672,46.472Z" transform="rotate(0.712 51.415 46.837)" fill="#000000"/>
<path d="M72.907,46.648C71.454,46.648 70.277,47.792 70.277,49.203L70.277,53.564C70.277,54.975 71.454,56.119 72.907,56.119L86.393,56.119C87.845,56.119 89.023,54.975 89.023,53.564L89.023,40.462C89.023,39.051 87.845,37.907 86.393,37.907L72.907,37.907C71.454,37.907 70.277,39.051 70.277,40.462C70.277,41.873 71.454,43.018 72.907,43.018L83.762,43.018L83.762,51.009L75.537,51.009L75.537,49.203C75.537,47.792 74.36,46.648 72.907,46.648Z" transform="rotate(0.712 79.65 47.013)" fill="#000000"/>
<path d="M157.921,38.329C156.468,38.329 155.291,39.474 155.291,40.885L155.291,155.218L139.736,155.218L139.736,33.998L157.921,33.998C159.373,33.998 160.551,32.854 160.551,31.443C160.551,30.032 159.373,28.887 157.921,28.887L137.105,28.887C135.653,28.887 134.475,30.032 134.475,31.443L134.475,157.774C134.475,159.185 135.653,160.329 137.105,160.329L157.921,160.329C159.373,160.329 160.551,159.185 160.551,157.774L160.551,40.885C160.551,39.474 159.373,38.329 157.921,38.329Z" transform="rotate(0.712 147.513 94.608)" fill="#000000"/>
</svg>
