<svg width="162" height="162" viewBox="0 0 162 162" fill="none" xmlns="http://www.w3.org/2000/svg" xmlns:xlink="http://www.w3.org/1999/xlink">
<path d="M137.39,23.596L137.39,7.65C137.39,3.382 133.917,-0.092 129.648,-0.092L31.587,-0.092C27.318,-0.092 23.842,3.382 23.842,7.65L23.842,23.593C8.358,38.68 0.616,58.626 0.616,79.908C0.616,124.022 36.503,159.908 80.616,159.908C124.73,159.908 160.616,124.022 160.616,79.908C160.616,58.628 152.366,38.682 137.39,23.596ZM137.39,31.191C138.012,31.913 138.616,32.646 139.21,33.389C138.748,33.88 138.144,34.468 137.39,35.144L137.39,31.191ZM137.39,74.747L137.39,41.766C139.543,40.179 141.176,38.729 142.332,37.573C150.381,49.24 154.905,62.917 155.39,77.328L136.916,77.328C137.205,76.517 137.39,75.655 137.39,74.747ZM29.003,7.65C29.003,6.226 30.162,5.069 31.587,5.069L129.648,5.069C131.073,5.069 132.229,6.226 132.229,7.65L132.229,61.844L29.003,61.844L29.003,7.65ZM29.003,67.005L132.229,67.005L132.229,74.747C132.229,76.171 131.073,77.328 129.648,77.328L31.587,77.328C30.162,77.328 29.003,76.171 29.003,74.747L29.003,67.005ZM111.584,87.65L111.584,82.489L116.681,82.489C116.627,84.233 116.531,85.957 116.374,87.65L111.584,87.65ZM115.734,92.811C114.972,97.707 113.808,102.368 112.358,106.775C104.454,104.755 94.823,103.353 83.197,103.168L83.197,92.811L115.734,92.811ZM49.648,82.489L49.648,87.65L44.859,87.65C44.701,85.957 44.606,84.233 44.552,82.489L49.648,82.489ZM23.845,31.186L23.845,35.144C23.091,34.468 22.487,33.877 22.025,33.387C22.619,32.644 23.223,31.911 23.845,31.186ZM18.898,37.575C20.054,38.731 21.261,40.182 23.842,41.769L23.842,74.747C23.842,75.655 24.03,76.517 24.319,77.328L5.842,77.328C6.325,62.917 10.849,49.24 18.898,37.575ZM5.842,82.489L31.587,82.489L39.388,82.489C39.437,84.233 39.53,85.955 39.674,87.65L34.165,87.65L34.165,92.811L40.247,92.811C41.024,98.236 42.263,103.371 43.824,108.21C30.02,112.579 22.389,118.706 18.913,122.195C11.094,110.819 6.345,97.186 5.842,82.489ZM22.046,126.411C24.691,123.655 31.785,117.516 45.563,113.144C53.192,133.093 65.989,147.34 73.372,154.388C52.632,152.388 34.353,141.88 22.046,126.411ZM78.036,151.622C71.398,145.379 58.379,131.395 50.652,111.702C58.072,109.826 67.117,108.512 78.036,108.329L78.036,151.622ZM78.036,103.168C66.41,103.351 56.779,104.755 48.874,106.775C47.424,102.368 46.26,97.707 45.499,92.811L78.036,92.811L78.036,103.168ZM54.81,87.65L54.81,82.489L106.423,82.489L106.423,87.65L54.81,87.65ZM83.197,151.622L83.197,108.329C94.116,108.509 103.161,109.826 110.58,111.702C102.854,131.395 89.834,145.379 83.197,151.622ZM87.86,154.391C95.246,147.343 108.043,133.095 115.669,113.147C129.447,117.516 136.541,123.658 139.187,126.414C126.879,141.88 108.601,152.388 87.86,154.391ZM142.319,122.195C138.843,118.706 131.212,112.579 117.408,108.21C118.97,103.369 120.208,98.233 120.985,92.811L127.068,92.811L127.068,87.65L121.558,87.65C121.703,85.955 121.793,84.233 121.845,82.489L129.648,82.489L155.39,82.489C154.89,97.186 150.141,110.819 142.319,122.195Z" transform="rotate(0.712 80.616 79.908)" fill="#000000"/>
<path d="M95.351,22.66L99.153,18.859L95.504,15.21L91.702,19.011C89.341,17.241 86.539,16.038 83.486,15.599L83.486,10.232L78.324,10.232L78.324,15.599C75.272,16.038 72.469,17.241 70.108,19.011L66.306,15.21L62.657,18.859L66.459,22.66C64.688,25.021 63.486,27.824 63.047,30.877L57.679,30.877L57.679,36.038L63.047,36.038C63.486,39.091 64.688,41.894 66.459,44.255L62.657,48.056L66.306,51.705L70.108,47.904C72.469,49.674 75.272,50.874 78.324,51.315L78.324,56.683L83.486,56.683L83.486,51.315C86.539,50.877 89.341,49.674 91.702,47.904L95.504,51.705L99.153,48.056L95.351,44.255C97.122,41.894 98.322,39.091 98.763,36.038L104.131,36.038L104.131,30.877L98.763,30.877C98.324,27.824 97.122,25.021 95.351,22.66ZM80.905,46.361C73.79,46.361 68.002,40.572 68.002,33.457C68.002,26.343 73.79,20.554 80.905,20.554C88.02,20.554 93.808,26.343 93.808,33.457C93.808,40.572 88.02,46.361 80.905,46.361Z" transform="rotate(0.712 80.905 33.457)" fill="#000000"/>
<path d="M80.905,36.038C82.33,36.038 83.486,34.883 83.486,33.457C83.486,32.032 82.33,30.877 80.905,30.877C79.48,30.877 78.324,32.032 78.324,33.457C78.324,34.883 79.48,36.038 80.905,36.038Z" transform="rotate(0.712 80.905 33.457)" fill="#000000"/>
</svg>
