<svg width="166" height="166" viewBox="0 0 166 166" fill="none" xmlns="http://www.w3.org/2000/svg" xmlns:xlink="http://www.w3.org/1999/xlink">
<path d="M122.469,161.797L122.469,164.297C123.849,164.297 124.969,163.177 124.969,161.797L122.469,161.797ZM2.654,161.797L0.154,161.797C0.154,163.177 1.273,164.297 2.654,164.297L2.654,161.797ZM2.654,1.797L2.654,-0.703C1.273,-0.703 0.154,0.416 0.154,1.797L2.654,1.797ZM98.506,1.797L100.26,0.016C99.792,-0.445 99.162,-0.703 98.506,-0.703L98.506,1.797ZM122.469,25.403L124.969,25.403C124.969,24.734 124.7,24.092 124.223,23.622L122.469,25.403ZM122.469,159.297L2.654,159.297L2.654,164.297L122.469,164.297L122.469,159.297ZM5.154,161.797L5.154,1.797L0.154,1.797L0.154,161.797L5.154,161.797ZM2.654,4.297L98.506,4.297L98.506,-0.703L2.654,-0.703L2.654,4.297ZM96.751,3.578L120.714,27.184L124.223,23.622L100.26,0.016L96.751,3.578ZM119.969,25.403L119.969,161.797L124.969,161.797L124.969,25.403L119.969,25.403Z" transform="rotate(0.712 62.561 81.797)" fill="#000000"/>
<path d="M122.892,25.701L122.892,28.201C123.911,28.201 124.829,27.581 125.21,26.636C125.592,25.69 125.361,24.608 124.626,23.9L122.892,25.701ZM98.384,25.701L95.884,25.701C95.884,27.081 97.003,28.201 98.384,28.201L98.384,25.701ZM98.384,2.094L100.119,0.294C99.396,-0.402 98.329,-0.599 97.406,-0.206C96.483,0.186 95.884,1.092 95.884,2.094L98.384,2.094ZM122.892,23.201L98.384,23.201L98.384,28.201L122.892,28.201L122.892,23.201ZM100.884,25.701L100.884,2.094L95.884,2.094L95.884,25.701L100.884,25.701ZM96.65,3.895L121.157,27.501L124.626,23.9L100.119,0.294L96.65,3.895Z" transform="rotate(0.712 110.638 13.898)" fill="#000000"/>
<path d="M92.654,57.002L32.746,57.002L32.746,62.002L92.654,62.002L92.654,57.002Z" transform="rotate(0.712 62.7 59.502)" fill="#000000"/>
<path d="M92.539,75.362L32.632,75.362L32.632,80.362L92.539,80.362L92.539,75.362Z" transform="rotate(0.712 62.586 77.862)" fill="#000000"/>
<path d="M92.425,93.723L32.518,93.723L32.518,98.723L92.425,98.723L92.425,93.723Z" transform="rotate(0.712 62.471 96.223)" fill="#000000"/>
<path d="M92.654,57.002L32.746,57.002L32.746,62.002L92.654,62.002L92.654,57.002Z" transform="rotate(0.712 62.7 59.502)" fill="#000000"/>
<path d="M92.539,75.362L32.632,75.362L32.632,80.362L92.539,80.362L92.539,75.362Z" transform="rotate(0.712 62.586 77.862)" fill="#000000"/>
<path d="M92.425,93.723L32.518,93.723L32.518,98.723L92.425,98.723L92.425,93.723Z" transform="rotate(0.712 62.471 96.223)" fill="#000000"/>
<path d="M88.894,141.145L89.48,143.576C89.912,143.472 90.308,143.254 90.628,142.946L88.894,141.145ZM73.49,144.857L71.07,144.229C70.849,145.079 71.091,145.982 71.707,146.609C72.322,147.235 73.221,147.493 74.075,147.287L73.49,144.857ZM77.34,130.019L75.606,128.218C75.273,128.538 75.036,128.944 74.92,129.391L77.34,130.019ZM148.584,61.394L150.318,63.195L150.318,63.195L148.584,61.394ZM154.361,59.089L154.361,56.589L154.361,59.089ZM160.138,61.394L161.872,59.594L161.872,59.594L160.138,61.394ZM162.53,66.958L160.03,66.958L162.53,66.958ZM160.138,72.521L161.872,74.321L161.872,74.321L160.138,72.521ZM88.309,138.715L72.904,142.426L74.075,147.287L89.48,143.576L88.309,138.715ZM75.91,145.485L79.76,130.647L74.92,129.391L71.07,144.229L75.91,145.485ZM79.075,131.819L150.318,63.195L146.849,59.594L75.606,128.218L79.075,131.819ZM150.318,63.195C150.841,62.691 151.466,62.287 152.161,62.01L150.308,57.366C149.02,57.88 147.844,58.636 146.849,59.594L150.318,63.195ZM152.161,62.01C152.855,61.733 153.603,61.589 154.361,61.589L154.361,56.589C152.972,56.589 151.595,56.852 150.308,57.366L152.161,62.01ZM154.361,61.589C155.118,61.589 155.866,61.733 156.561,62.01L158.414,57.366C157.126,56.852 155.749,56.589 154.361,56.589L154.361,61.589ZM156.561,62.01C157.255,62.287 157.881,62.691 158.403,63.195L161.872,59.594C160.877,58.636 159.702,57.88 158.414,57.366L156.561,62.01ZM158.403,63.195C159.456,64.209 160.03,65.565 160.03,66.958L165.03,66.958C165.03,64.177 163.882,61.531 161.872,59.594L158.403,63.195ZM160.03,66.958C160.03,68.35 159.456,69.706 158.403,70.721L161.872,74.321C163.882,72.385 165.03,69.738 165.03,66.958L160.03,66.958ZM158.403,70.72L87.16,139.345L90.628,142.946L161.872,74.321L158.403,70.72Z" transform="rotate(0.712 118.01 101.973)" fill="#000000"/>
<path d="M142.589,67.092L154.143,78.221L157.611,74.62L146.057,63.491L142.589,67.092Z" transform="rotate(0.712 150.1 70.856)" fill="#000000"/>
<path d="M79.588,126.392L91.142,137.521L94.611,133.92L83.057,122.791L79.588,126.392Z" transform="rotate(0.712 87.099 130.156)" fill="#000000"/>
</svg>
